<svg version="1.1" id="Layer_1" xmlns="http://www.w3.org/2000/svg" xmlns:xlink="http://www.w3.org/1999/xlink" x="0px" y="0px"
	 width="960px" height="560px" viewBox="0 0 960 560" enable-background="new 0 0 960 560" xml:space="preserve">
<g>
	<path class="land" stroke="#ffffff" d="M403.613,61.613c-33.064,0-62.903,2.419-94.355,13.71c-22.581,8.064-20.161,9.677-14.516,29.838
		c4.838,15.323-0.807,28.226-2.419,43.548c-3.226,24.194-8.065,43.549-16.936,66.936c-5.645,14.516-17.742,34.678-16.936,50.807
		c0.806,12.903,4.839,12.903,16.129,17.742c33.064,16.129,41.129,37.903,61.291,66.936c12.903,19.355,34.677,17.742,57.258,18.549
		c15.323,0.807,32.258-1.613,46.774,4.032c9.677,4.032,13.709,10.483,21.774,16.936c26.613,21.773,74.194-6.452,100.807-16.936
		c32.258-12.097,63.709-23.388,93.548-40.323c16.936-8.87,32.258-15.322,50.807-19.354c12.097-3.226,17.742-3.226,25.807-14.516
		c20.161-31.452,4.032-61.291-16.936-83.872c-8.871-9.677-12.903-22.581-20.968-33.064c-6.452-7.258-12.903-10.484-19.355-16.936
		c-13.709-13.709-22.58-38.709-23.387-58.064c0-8.871,1.613-16.129,8.064-21.774C648.774,77.742,627,72.903,613.29,68.871
		C585.064,60,552,54.355,522.968,48.709c-24.193-4.838-39.517,2.419-62.097,5.646c-18.548,3.226-37.097,4.838-56.452,7.258"/>
	<g>
		<path fill="ffffff" stroke="#ffffff" d="M403.613,60.113c-29.691,0.042-59.201,2.393-87.658,11.356c-7.557,2.38-18.975,4.895-24.477,11.246
			c-3.797,4.383-1.537,10.973-0.178,15.847c1.765,6.331,3.688,12.362,3.859,19.007c0.204,7.92-1.884,15.807-3.258,23.553
			c-2.585,14.57-4.29,29.076-8.017,43.447c-3.612,13.93-8.334,27.632-14.299,40.727c-4.96,10.89-10.777,22.206-12.274,34.229
			c-0.955,7.663-0.729,16.989,6.478,21.52c3.976,2.499,8.762,3.768,12.931,5.904c5.922,3.035,11.527,6.688,16.717,10.849
			c17.866,14.323,28.35,35.577,41.14,54.089c13.981,20.235,38.389,18.385,60.262,19.369c15.191,0.684,31.528-1.927,45.871,4.444
			c11.008,4.891,17.343,16.292,28.454,21.205c19.361,8.561,43.016-0.265,61.238-7.682c9.943-4.047,19.617-8.716,29.517-12.863
			c13.556-5.679,27.565-10.341,41.236-15.745c13.853-5.476,27.535-11.384,40.862-18.044c13.854-6.923,27.086-14.633,41.62-20.148
			c11.925-4.525,24.691-6.125,36.578-10.564c10.126-3.781,15.943-13.916,19.722-23.446c6.859-17.3,2.579-35.884-6.295-51.532
			c-4.602-8.114-10.574-15.448-16.87-22.294c-7.305-7.944-11.41-18.238-16.996-27.344c-5.269-8.589-13.275-13.768-20.746-20.23
			c-7.483-6.473-12.691-15.132-16.782-24.032c-3.98-8.659-6.558-18.008-8-27.411c-1.569-10.231-1.156-21.225,6.879-28.7
			c0.751-0.698,0.462-1.829-0.304-2.356c-15.069-10.372-34.826-13.438-52.064-18.59c-22.352-6.68-45.366-11.014-68.257-15.378
			c-10.52-2.006-21.043-4.583-31.783-4.932c-10.15-0.33-20.2,1.771-30.068,3.874c-24.51,5.22-49.395,7.553-74.229,10.628
			c-1.894,0.234-1.917,3.237,0,3c22.932-2.84,46.009-4.847,68.691-9.404c10.197-2.049,20.255-4.535,30.687-5.052
			c11.559-0.572,22.891,2.301,34.163,4.447c22.357,4.255,44.742,8.556,66.663,14.741c9.141,2.579,18.286,5.19,27.404,7.853
			c9.407,2.747,19.137,5.799,27.28,11.404c-0.102-0.786-0.202-1.571-0.304-2.356c-8.43,7.842-9.211,18.946-7.9,29.789
			c1.434,11.865,5.221,23.446,10.545,34.118c5.836,11.699,14.188,19.718,24.291,27.75c11.667,9.275,16.18,22.994,24.402,34.918
			c3.457,5.014,7.939,9.283,11.755,14.022c4.649,5.774,8.659,12.051,11.95,18.69c6.538,13.191,8.159,27.893,3.584,41.953
			c-2.282,7.013-6.188,13.772-11.557,18.85c-3.938,3.724-9.184,5.104-14.287,6.391c-13.316,3.357-26.23,6.882-38.877,12.337
			c-13.968,6.024-26.995,13.938-40.721,20.471c-14.333,6.82-29.092,12.708-43.907,18.382c-11.99,4.592-24.143,8.776-35.898,13.949
			c-10.609,4.669-21.118,9.544-32.007,13.547c-10.858,3.992-22.261,7.152-33.899,7.271c-12.737,0.13-21.864-5.393-30.818-13.96
			c-4.135-3.956-8.291-7.532-13.437-10.114c-5.887-2.953-12.756-3.861-19.239-4.426c-13.798-1.202-27.919-0.429-41.776-0.837
			c-11.999-0.354-24.429-1.217-34.751-7.958c-5.566-3.636-9.147-9.232-12.779-14.639c-3.458-5.146-6.771-10.389-10.127-15.601
			c-12.043-18.706-25.345-34.712-45.317-45.291c-4.196-2.223-8.794-3.576-12.931-5.904c-4.758-2.679-5.251-8.431-5.388-13.354
			c-0.37-13.264,6.908-26.584,12.262-38.289c11.817-25.836,18.245-53.291,22.05-81.335c1.036-7.632,2.957-15.102,3.719-22.778
			c0.792-7.972-0.96-15.201-3.142-22.79c-1.107-3.852-2.578-7.935-2.371-11.997c0.207-4.068,4.802-6.076,7.956-7.539
			c31.787-14.747,68.734-17.21,103.225-17.259C405.547,63.11,405.547,60.11,403.613,60.113L403.613,60.113z"/>
	</g>
</g>
</svg>